<?xml version="1.0" standalone="no"?><!DOCTYPE svg PUBLIC "-//W3C//DTD SVG 1.1//EN" "http://www.w3.org/Graphics/SVG/1.1/DTD/svg11.dtd"><svg t="1568971439016" class="icon" viewBox="0 0 1024 1024" version="1.1" xmlns="http://www.w3.org/2000/svg" p-id="2038" xmlns:xlink="http://www.w3.org/1999/xlink" width="200" height="200"><defs><style type="text/css"></style></defs><path d="M512 629.333333a117.333333 117.333333 0 1 1 117.333333-117.333333 117.546667 117.546667 0 0 1-117.333333 117.333333z m0-213.333333a96 96 0 1 0 96 96 96 96 0 0 0-96-96z" fill="#ffffff" p-id="2039"></path><path d="M512 789.333333a277.333333 277.333333 0 1 1 277.333333-277.333333 277.333333 277.333333 0 0 1-277.333333 277.333333z m0-533.333333a256 256 0 1 0 256 256 256 256 0 0 0-256-256z" fill="#ffffff" p-id="2040"></path><path d="M512 949.333333A437.333333 437.333333 0 1 1 949.333333 512 437.76 437.76 0 0 1 512 949.333333z m0-853.333333A416 416 0 1 0 928 512 416.426667 416.426667 0 0 0 512 96z" fill="#ffffff" p-id="2041"></path><path d="M85.333333 501.333333h853.333334v21.333334H85.333333z" fill="#ffffff" p-id="2042"></path><path d="M501.333333 85.333333h21.333334v853.333334h-21.333334z" fill="#ffffff" p-id="2043"></path><path d="M293.76 347.52m-34.56 0a34.56 34.56 0 1 0 69.12 0 34.56 34.56 0 1 0-69.12 0Z" fill="#ffffff" p-id="2044"></path><path d="M778.666667 512m-34.56 0a34.56 34.56 0 1 0 69.12 0 34.56 34.56 0 1 0-69.12 0Z" fill="#ffffff" p-id="2045"></path></svg>